# xmcd CD database file
#
# Track frame offsets:
#	300
#	20166
#	40080
#	58166
#	75919
#	96928
#	114363
#	141088
#	156306
#	179302
#
# Disc length: 2822 seconds
#
# Revision: 3
# Processed by: cddbd v1.5.2PL0 Copyright (c) Steve Scherf et al.
# Submitted via: CDex 1.51
#
DISCID=7f0b020a
DTITLE=Johannes Linstead - Mediterranea
DYEAR=2004
DGENRE=Instrumental
TTITLE0=Andalucia
TTITLE1=Evening Embrace
TTITLE2=Sangre del Torro
TTITLE3=Ambrosia
TTITLE4=Adelita
TTITLE5=Tabú
TTITLE6=Hour of the Lamps
TTITLE7=Motika
TTITLE8=Estellas Sobre Ella
TTITLE9=Journey to Alcazaba
EXTD=YEAR: 2004
EXTT0=
EXTT1=
EXTT2=
EXTT3=
EXTT4=
EXTT5=
EXTT6=
EXTT7=
EXTT8=
EXTT9=
PLAYORDER=
